<svg id="Layer_1" data-name="Layer 1" xmlns="http://www.w3.org/2000/svg" viewBox="0 0 1000 1000"><defs><style>.cls-1{fill:#010101;}.cls-2{fill:#e6e7e8;}.cls-3{fill:#414042;}.cls-4{fill:#67686b;}.cls-5{fill:#a7a9ac;}</style></defs><rect class="cls-1" width="1000" height="1000"/><path class="cls-2" d="M403,710.47c-1.28,0-2.55,0-3.83-.09a74.54,74.54,0,0,1-60.69-111.54,12.65,12.65,0,0,1,9.66-6.25,12.84,12.84,0,0,1,10.9,4.28,14,14,0,0,0,11.65,5,18.49,18.49,0,0,0,15-11.34,14.51,14.51,0,0,0-1.25-10.28,12.75,12.75,0,0,1,9.9-18.3,77.1,77.1,0,0,1,12.63-.43,74.54,74.54,0,0,1-4,149Zm-52.35-98.32a57.62,57.62,0,1,0,55.5-33.76c-1.45-.07-2.9-.09-4.35,0a30.71,30.71,0,0,1,.13,17l-.11.35a35.64,35.64,0,0,1-29.17,23l-.39,0A30.17,30.17,0,0,1,350.64,612.15Z"/><path class="cls-3" d="M856.17,559.56a41.87,41.87,0,0,1-40.42-31.14A428.26,428.26,0,0,0,292,223.21a41.79,41.79,0,0,1-21.79-80.69l.47-.13A511.86,511.86,0,0,1,896.57,507.11a41.94,41.94,0,0,1-29.27,50.94l-.49.13A41.5,41.5,0,0,1,856.17,559.56ZM401.42,202.17A435.07,435.07,0,0,1,822.3,526.7a35.07,35.07,0,0,0,42.79,24.93l.41-.11A35.15,35.15,0,0,0,890,508.84,505.12,505.12,0,0,0,272.4,148.93l-.43.12a35,35,0,0,0,18.28,67.61A435.24,435.24,0,0,1,401.42,202.17Z"/><path class="cls-4" d="M720.07,597.14A43.55,43.55,0,0,1,678,564.73,286,286,0,0,0,328.29,360.94a43.48,43.48,0,1,1-22.16-84.09,372.93,372.93,0,0,1,456,265.71,43.63,43.63,0,0,1-30.46,53h0l-.51.14A43.53,43.53,0,0,1,720.07,597.14ZM401.36,341.26A296.17,296.17,0,0,1,687.84,562.14a33.37,33.37,0,0,0,40.72,23.74l.38-.11a33.43,33.43,0,0,0,23.35-40.61A362.77,362.77,0,0,0,308.71,286.67,33.29,33.29,0,0,0,285,327.39a33.38,33.38,0,0,0,40.73,23.74A296,296,0,0,1,401.36,341.26Z"/><path class="cls-2" d="M403.11,870.48C301,870.48,207,802.68,178.52,699.55a232.06,232.06,0,0,1,34.31-196.46,45.46,45.46,0,1,1,74.24,52.47,141.49,141.49,0,0,0-20.92,119.78c10,36.24,33.81,66.57,67,85.4s71.45,23.69,107.68,13.68a141.65,141.65,0,0,0,91.44-78A45.46,45.46,0,0,1,615,734.06,233.07,233.07,0,0,1,403.11,870.48ZM250,500.78a28.75,28.75,0,0,0-23.38,12.08A215.23,215.23,0,0,0,194.83,695c31.71,114.8,150.91,182.41,265.71,150.69A215.44,215.44,0,0,0,599.61,727a28.53,28.53,0,0,0-51.93-23.64,158.53,158.53,0,0,1-102.33,87.33c-40.6,11.21-83.41,5.79-120.54-15.27s-63.76-55-75-95.61a158.37,158.37,0,0,1,23.42-134.06,28.55,28.55,0,0,0-23.22-45Z"/><path class="cls-5" d="M582.69,634.81A45.26,45.26,0,0,1,539,601.15,142.43,142.43,0,0,0,365,499.73a45.17,45.17,0,0,1-50.49-66.51,44.66,44.66,0,0,1,27.48-20.86A232.79,232.79,0,0,1,626.36,578.12a45.35,45.35,0,0,1-31.65,55.06l-.5.13A45,45,0,0,1,582.69,634.81ZM401.52,481.42A156.14,156.14,0,0,1,552.08,597.7a31.68,31.68,0,0,0,38.66,22.52l.38-.1a31.75,31.75,0,0,0,22.14-38.55A219.24,219.24,0,0,0,345.37,425.46a31.65,31.65,0,0,0-22.53,38.65,31.68,31.68,0,0,0,38.65,22.53A157,157,0,0,1,401.52,481.42Z"/></svg>