<svg id="Layer_1" data-name="Layer 1" xmlns="http://www.w3.org/2000/svg" viewBox="0 0 1000 1000"><defs><style>.cls-1{fill:#fff;stroke:#cfcfce;stroke-miterlimit:10;}.cls-2{fill:#3d3d3f;}.cls-3{fill:#dcdee1;}.cls-4{fill:#a0a3a6;}.cls-5{fill:#626467;}</style></defs><rect class="cls-1" x="2.5" width="1000" height="1000"/><path class="cls-2" d="M372.05,605.13A27.08,27.08,0,0,0,394.19,588a22.92,22.92,0,0,0-1.74-16.53,4.28,4.28,0,0,1,3.31-6.12,66.93,66.93,0,0,1,11.19-.38,65.91,65.91,0,1,1-60.58,33,4.24,4.24,0,0,1,6.86-.59A22.3,22.3,0,0,0,372.05,605.13Z"/><path class="cls-3" d="M865.55,549.81l-.44.12a38.31,38.31,0,0,1-46.8-27.27,430.53,430.53,0,0,0-526.48-306.8,38.3,38.3,0,0,1-20-74l.44-.12A507.1,507.1,0,0,1,892.38,503.13,38.31,38.31,0,0,1,865.55,549.81Z"/><path class="cls-4" d="M729.82,585.59l-.45.12a38.28,38.28,0,0,1-46.79-27.27,290.26,290.26,0,0,0-355-206.84,38.3,38.3,0,1,1-19.52-74.08,366.86,366.86,0,0,1,448.56,261.4A38.29,38.29,0,0,1,729.82,585.59Z"/><path class="cls-2" d="M250.85,489.2a36.14,36.14,0,0,0-6,.52A35,35,0,0,0,222,504.1a221.34,221.34,0,0,0-32.73,187.39c32.62,118.07,155.22,187.6,273.3,155a221.58,221.58,0,0,0,143-122.08,35.21,35.21,0,0,0-64.08-29.18,151.37,151.37,0,0,1-97.7,83.39c-38.76,10.7-79.63,5.52-115.09-14.59s-60.89-52.53-71.6-91.28a151.22,151.22,0,0,1,22.36-128,35.22,35.22,0,0,0-28.67-55.54Z"/><path class="cls-5" d="M592.8,621.48l-.44.12a38.3,38.3,0,0,1-46.8-27.27,148.79,148.79,0,0,0-181.82-106,38.31,38.31,0,0,1-19.53-74.08A225.41,225.41,0,0,1,619.63,574.8,38.3,38.3,0,0,1,592.8,621.48Z"/></svg>