<svg id="Layer_1" data-name="Layer 1" xmlns="http://www.w3.org/2000/svg" viewBox="0 0 1000 1000"><defs><style>.cls-1{fill:#ce181e;}.cls-2{fill:#67686b;}.cls-2,.cls-5{stroke:#626467;}.cls-2,.cls-3,.cls-4,.cls-5,.cls-6{stroke-miterlimit:10;}.cls-3,.cls-4,.cls-5,.cls-6{fill:none;}.cls-3{stroke:#dcdee1;stroke-width:10px;}.cls-4{stroke:#3d3d3f;stroke-width:7px;}.cls-5{stroke-width:8px;}.cls-6{stroke:#a0a3a6;stroke-width:9px;}</style></defs><path class="cls-1" d="M811.24,824.28h20.94v18.49c3.58-9.43,13.77-20.38,33.76-20.38v22.83c-20.56,0-33.76,9.81-33.76,34.33v38.1H811.24Z"/><path class="cls-2" d="M130.31,871.06c0-27.16,22.07-48.67,49.61-48.67a51.31,51.31,0,0,1,33.39,12.08l-13,14.9c-4.72-4.34-11.69-6.79-20-6.79-16.42,0-28.68,11.88-28.68,28.48,0,16,11.32,28.3,29.24,28.3,8.68,0,17.35-3,22.83-8.11l11.5,15.84c-9.05,7.73-21.69,12.45-35.27,12.45C152.38,919.54,130.31,898.23,130.31,871.06Z"/><path class="cls-2" d="M225.56,871.06c0-27.16,22.07-48.67,49.61-48.67s49.61,21.51,49.61,48.67c0,27-22.07,48.48-49.61,48.48S225.56,898,225.56,871.06Zm77.91,0c0-16.41-12.26-28.48-28.3-28.48s-28.29,12.07-28.29,28.48c0,16.22,12.26,28.3,28.29,28.3S303.47,887.28,303.47,871.06Z"/><path class="cls-2" d="M344.4,824.28h20.93v13.39c7-10.37,17.74-15.28,30.19-15.28,25.27,0,33.57,16.79,33.57,41.69v53.57H408.15V866.72c0-15.28-3.39-24.14-19-24.14-13.77,0-23.77,10.75-23.77,26.22v48.85H344.4Z"/><path class="cls-2" d="M456.63,887.66V841.45H442.86V824.28h13.77V806l20.93-4.34v22.64h28.11v17.17H477.56v46.78c0,10,4.72,13.2,10,13.2,7.36,0,13.58-4.53,13.58-4.53l6.23,15.66a40.33,40.33,0,0,1-22.45,7C465.87,919.54,456.63,909.17,456.63,887.66Z"/><path class="cls-2" d="M523.4,824.28h20.94v18.49c3.58-9.43,13.77-20.38,33.76-20.38v22.83c-20.56,0-33.76,9.81-33.76,34.33v38.1H523.4Z"/><path class="cls-2" d="M590,871.06c0-27.16,22.07-48.67,49.61-48.67s49.61,21.51,49.61,48.67c0,27-22.07,48.48-49.61,48.48S590,898,590,871.06Zm77.91,0c0-16.41-12.26-28.48-28.3-28.48s-28.29,12.07-28.29,28.48c0,16.22,12.26,28.3,28.29,28.3S667.89,887.28,667.89,871.06Z"/><path class="cls-2" d="M709,793.53h20.94V917.65H709Z"/><path class="cls-2" d="M760.67,871.08a10.47,10.47,0,0,1,10.42-10.57,10.5,10.5,0,1,1,0,21A10.34,10.34,0,0,1,760.67,871.08Z"/><path class="cls-3" d="M452,448.91a20.5,20.5,0,0,0,16.77-13,17.43,17.43,0,0,0-1.32-12.52,3.25,3.25,0,0,1,2.5-4.64,51.79,51.79,0,0,1,8.48-.28,49.9,49.9,0,1,1-45.89,25,3.22,3.22,0,0,1,5.2-.45A16.92,16.92,0,0,0,452,448.91Z"/><path class="cls-4" d="M825.75,407l-.33.09A29,29,0,0,1,790,386.44,326,326,0,0,0,391.23,154.09a29,29,0,0,1-15.13-56l.34-.09A384.1,384.1,0,0,1,846.08,371.65,29,29,0,0,1,825.75,407Z"/><path class="cls-5" d="M723,434.11l-.33.09a29,29,0,0,1-35.45-20.66A219.83,219.83,0,0,0,418.33,256.89a29,29,0,0,1-14.79-56.11,277.86,277.86,0,0,1,339.74,198A29,29,0,0,1,723,434.11Z"/><path class="cls-3" d="M360.19,359.83a28,28,0,0,0-22.88,11.82,168.92,168.92,0,0,0-25,143c24.89,90.11,118.45,143.17,208.56,118.29h0a169.15,169.15,0,0,0,109.16-93.17,27.94,27.94,0,0,0-50.86-23.16A113.66,113.66,0,1,1,383,403.91a28,28,0,0,0-22.76-44.08Z"/><path class="cls-6" d="M619.18,461.29l-.34.09a29,29,0,0,1-35.44-20.65,112.7,112.7,0,0,0-137.71-80.25,29,29,0,0,1-14.79-56.1A170.71,170.71,0,0,1,639.5,425.94,29,29,0,0,1,619.18,461.29Z"/></svg>