<svg xmlns="http://www.w3.org/2000/svg" viewBox="0 0 195.12 195.12"><defs><style>.cls-1{fill:#010101;}.cls-2{fill:#e6e7e8;}.cls-3{fill:#414042;}.cls-4{fill:#67686b;}.cls-5{fill:#a7a9ac;}</style></defs><g id="Layer_2" data-name="Layer 2"><g id="Layer_1-2" data-name="Layer 1"><rect class="cls-1" width="195.12" height="195.12"/><path class="cls-2" d="M78.63,138.63l-.75,0A14.54,14.54,0,0,1,66,116.85a2.46,2.46,0,0,1,1.89-1.23,2.51,2.51,0,0,1,2.12.84,2.73,2.73,0,0,0,2.28,1,3.61,3.61,0,0,0,2.92-2.21,2.85,2.85,0,0,0-.24-2,2.48,2.48,0,0,1,0-2.28,2.51,2.51,0,0,1,1.89-1.29,14.55,14.55,0,1,1,1.69,29ZM68.42,119.44A11.24,11.24,0,0,0,87,131.63a11.24,11.24,0,0,0-7.74-18.77c-.29,0-.57,0-.85,0a6,6,0,0,1,0,3.31l0,.07a6.94,6.94,0,0,1-5.69,4.49h-.08A5.85,5.85,0,0,1,68.42,119.44Z"/><path class="cls-3" d="M167.05,109.18a8.16,8.16,0,0,1-7.88-6.08A83.57,83.57,0,0,0,57,43.55a8.15,8.15,0,0,1-4.25-15.74l.09,0A99.89,99.89,0,0,1,174.94,99a8.19,8.19,0,0,1-5.71,9.94l-.1,0A8.25,8.25,0,0,1,167.05,109.18ZM78.32,39.45a84.9,84.9,0,0,1,82.13,63.32,6.83,6.83,0,0,0,8.34,4.86l.08,0a6.86,6.86,0,0,0,4.79-8.33A98.54,98.54,0,0,0,53.15,29.06l-.08,0a6.83,6.83,0,0,0,3.56,13.19A85.13,85.13,0,0,1,78.32,39.45Z"/><path class="cls-4" d="M140.5,116.51a8.51,8.51,0,0,1-8.21-6.32A55.77,55.77,0,0,0,64.06,70.43,8.49,8.49,0,1,1,59.73,54a72.77,72.77,0,0,1,89,51.84,8.51,8.51,0,0,1-5.94,10.34h0l-.1,0A8.48,8.48,0,0,1,140.5,116.51ZM78.31,66.59a56.83,56.83,0,0,1,7.36.47,57.76,57.76,0,0,1,48.54,42.62,6.51,6.51,0,0,0,7.94,4.64l.08,0a6.52,6.52,0,0,0,4.56-7.92A70.81,70.81,0,0,0,60.24,55.93a6.5,6.5,0,0,0,3.31,12.58A57.83,57.83,0,0,1,78.31,66.59Z"/><path class="cls-2" d="M78.65,169.85A45.45,45.45,0,0,1,41.53,98.16,8.87,8.87,0,1,1,56,108.4a27.71,27.71,0,1,0,47.85,27.48A8.87,8.87,0,1,1,120,143.23a45.51,45.51,0,0,1-41.35,26.62ZM48.78,97.71a6.19,6.19,0,0,0-1,.08,5.56,5.56,0,0,0-3.61,2.28A42.15,42.15,0,1,0,117,141.86a5.57,5.57,0,0,0,.14-4.26,5.57,5.57,0,0,0-10.28-.35,31,31,0,1,1-53.54-30.76A5.55,5.55,0,0,0,52,98.74,5.5,5.5,0,0,0,48.78,97.71Z"/><path class="cls-5" d="M113.69,123.86a8.83,8.83,0,0,1-8.52-6.56,27.79,27.79,0,0,0-34-19.79,8.83,8.83,0,0,1-10.77-6.28,8.82,8.82,0,0,1,6.28-10.77,45.42,45.42,0,0,1,55.49,32.34A8.83,8.83,0,0,1,116,123.54l-.1,0A8.69,8.69,0,0,1,113.69,123.86ZM78.34,93.93a30.45,30.45,0,0,1,29.38,22.69,6.19,6.19,0,0,0,7.54,4.4l.08,0a6.2,6.2,0,0,0,4.32-7.53A42.79,42.79,0,0,0,67.39,83,6.17,6.17,0,1,0,70.53,95,30.73,30.73,0,0,1,78.34,93.93Z"/></g></g></svg>