<svg xmlns="http://www.w3.org/2000/svg" viewBox="0 0 163.26 175.4"><defs><style>.cls-1{fill:#e6e7e8;}.cls-2{fill:#414042;}.cls-3{fill:#67686b;}.cls-4{fill:#a7a9ac;}.cls-5{fill:#a0a3a6;}.cls-6{fill:#ce181e;}</style></defs><g id="Layer_2" data-name="Layer 2"><g id="Layer_1-2" data-name="Layer 1"><path class="cls-1" d="M76.51,97.12l-.63,0A12.38,12.38,0,0,1,65.8,78.59a2.12,2.12,0,0,1,3.42-.33,2.32,2.32,0,0,0,1.93.83,3.07,3.07,0,0,0,2.49-1.89,2.43,2.43,0,0,0-.21-1.7,2.12,2.12,0,0,1,1.65-3,13.24,13.24,0,0,1,2.09-.07,12.37,12.37,0,0,1-.66,24.73ZM67.82,80.8A9.57,9.57,0,1,0,77,75.2a5.93,5.93,0,0,0-.73,0,5,5,0,0,1,0,2.81v.06a6,6,0,0,1-4.84,3.82h-.07A5,5,0,0,1,67.82,80.8Z"/><path class="cls-2" d="M151.73,72.07A7,7,0,0,1,145,66.9,71.08,71.08,0,0,0,58.09,16.24,6.94,6.94,0,0,1,54.47,2.85l.08,0A85,85,0,0,1,158.44,63.36a7,7,0,0,1-4.86,8.46l-.08,0A6.72,6.72,0,0,1,151.73,72.07ZM76.25,12.75a73,73,0,0,1,9.2.59,72.22,72.22,0,0,1,60.66,53.27,5.82,5.82,0,0,0,7.1,4.14l.07,0a5.83,5.83,0,0,0,4.07-7.08A83.85,83.85,0,0,0,54.84,3.91l-.07,0a5.81,5.81,0,0,0,3,11.22A72.32,72.32,0,0,1,76.25,12.75Z"/><path class="cls-3" d="M129.14,78.31a7.23,7.23,0,0,1-7-5.38,47.47,47.47,0,0,0-58-33.83,7.22,7.22,0,1,1-3.68-14,61.9,61.9,0,0,1,75.68,44.11A7.24,7.24,0,0,1,131.06,78h0l-.08,0A7.26,7.26,0,0,1,129.14,78.31ZM76.24,35.84A49.14,49.14,0,0,1,123.79,72.5a5.55,5.55,0,0,0,6.76,3.94l.07,0a5.55,5.55,0,0,0,3.87-6.74A60.22,60.22,0,0,0,60.86,26.77a5.53,5.53,0,0,0,2.83,10.7A49.07,49.07,0,0,1,76.24,35.84Z"/><path class="cls-1" d="M76.53,123.68A38.66,38.66,0,0,1,45,62.7a7.54,7.54,0,1,1,12.32,8.71A23.57,23.57,0,1,0,98,94.78,7.55,7.55,0,1,1,111.71,101a38.7,38.7,0,0,1-35.18,22.65ZM51.12,62.31a5.54,5.54,0,0,0-.81.07,4.71,4.71,0,0,0-3.07,1.94,35.85,35.85,0,1,0,61.91,35.55,4.74,4.74,0,0,0-8.62-3.93A26.38,26.38,0,1,1,55,69.78a4.74,4.74,0,0,0-3.86-7.47Z"/><path class="cls-4" d="M106.34,84.56A7.51,7.51,0,0,1,99.09,79,23.64,23.64,0,0,0,70.2,62.14a7.5,7.5,0,0,1-8.38-11,7.4,7.4,0,0,1,4.56-3.46,38.62,38.62,0,0,1,47.21,27.51,7.53,7.53,0,0,1-5.26,9.14l-.08,0A7.42,7.42,0,0,1,106.34,84.56ZM76.27,59.1a25.92,25.92,0,0,1,25,19.3,5.27,5.27,0,0,0,6.42,3.74l.06,0a5.27,5.27,0,0,0,3.67-6.4A36.39,36.39,0,0,0,67,49.81a5.26,5.26,0,0,0-3.74,6.42A5.26,5.26,0,0,0,69.63,60,25.93,25.93,0,0,1,76.27,59.1Z"/><path class="cls-5" d="M0,164.64a10.85,10.85,0,0,1,11-10.8,11.36,11.36,0,0,1,7.41,2.68l-2.89,3.31a6.43,6.43,0,0,0-4.44-1.51,6.3,6.3,0,1,0,.13,12.6,7.64,7.64,0,0,0,5.07-1.8l2.55,3.52A12.16,12.16,0,0,1,11,175.4,10.81,10.81,0,0,1,0,164.64Z"/><path class="cls-5" d="M21.14,164.64a10.85,10.85,0,0,1,11-10.8,10.78,10.78,0,1,1,0,21.56A10.84,10.84,0,0,1,21.14,164.64Zm17.29,0a6.28,6.28,0,1,0-6.28,6.28A6.15,6.15,0,0,0,38.43,164.64Z"/><path class="cls-5" d="M47.51,154.26h4.65v3a7.72,7.72,0,0,1,6.7-3.39c5.61,0,7.45,3.72,7.45,9.25V175H61.66v-11.3c0-3.39-.75-5.36-4.23-5.36-3,0-5.27,2.38-5.27,5.82V175H47.51Z"/><path class="cls-5" d="M72.42,168.32V158.07H69.36v-3.81h3.06V150.2l4.65-1v5h6.24v3.81H77.07v10.38c0,2.22,1,2.93,2.22,2.93a5.74,5.74,0,0,0,3-1l1.38,3.48a8.93,8.93,0,0,1-5,1.55C74.47,175.4,72.42,173.1,72.42,168.32Z"/><path class="cls-5" d="M87.24,154.26h4.65v4.1c.79-2.09,3-4.52,7.49-4.52v5.06c-4.56,0-7.49,2.18-7.49,7.62V175H87.24Z"/><path class="cls-5" d="M102,164.64a11,11,0,1,1,11,10.76A10.85,10.85,0,0,1,102,164.64Zm17.29,0a6.28,6.28,0,1,0-6.28,6.28A6.15,6.15,0,0,0,119.31,164.64Z"/><path class="cls-5" d="M128.43,147.43h4.65V175h-4.65Z"/><path class="cls-6" d="M151.12,154.26h4.65v4.1c.79-2.09,3-4.52,7.49-4.52v5.06c-4.56,0-7.49,2.18-7.49,7.62V175h-4.65Z"/><path class="cls-5" d="M139.9,164.64a2.32,2.32,0,0,1,2.31-2.34,2.33,2.33,0,1,1,0,4.66A2.29,2.29,0,0,1,139.9,164.64Z"/></g></g></svg>