<svg id="Layer_1" data-name="Layer 1" xmlns="http://www.w3.org/2000/svg" viewBox="0 0 1000 1000"><defs><style>.cls-1{fill:#3d3d3f;}.cls-2{fill:#dcdee1;}.cls-3{fill:#a0a3a6;}.cls-4{fill:#626467;}</style></defs><path class="cls-1" d="M314.25,630.33a30.59,30.59,0,0,0,25-19.4,25.88,25.88,0,0,0-2-18.66,4.84,4.84,0,0,1,3.75-6.91,75.52,75.52,0,0,1,12.63-.43,74.42,74.42,0,1,1-68.41,37.29,4.8,4.8,0,0,1,7.75-.67A25.18,25.18,0,0,0,314.25,630.33Z"/><path class="cls-2" d="M871.55,567.85l-.5.14a43.25,43.25,0,0,1-52.85-30.8A486.15,486.15,0,0,0,223.66,190.74a43.25,43.25,0,0,1-22.55-83.51l.5-.14a572.68,572.68,0,0,1,700.24,408A43.25,43.25,0,0,1,871.55,567.85Z"/><path class="cls-3" d="M718.27,608.27l-.5.13a43.25,43.25,0,0,1-52.85-30.8A327.75,327.75,0,0,0,264.07,344a43.25,43.25,0,1,1-22-83.65A414.28,414.28,0,0,1,748.57,555.55,43.26,43.26,0,0,1,718.27,608.27Z"/><path class="cls-1" d="M177.38,499.41a40.27,40.27,0,0,0-6.82.59,39.51,39.51,0,0,0-25.73,16.23,250,250,0,0,0-37,211.62c36.83,133.34,175.28,211.86,308.63,175A250.27,250.27,0,0,0,578,765a39.76,39.76,0,0,0-72.36-33,171,171,0,0,1-110.34,94.18c-43.77,12.08-89.92,6.23-130-16.48s-68.76-59.32-80.85-103.08a170.78,170.78,0,0,1,25.25-144.55,39.78,39.78,0,0,0-32.38-62.72Z"/><path class="cls-4" d="M563.54,648.79l-.5.14a43.25,43.25,0,0,1-52.85-30.8A168,168,0,0,0,304.86,498.48a43.25,43.25,0,1,1-22.05-83.65,254.56,254.56,0,0,1,311,181.25A43.25,43.25,0,0,1,563.54,648.79Z"/></svg>